<svg width="77" height="77" viewBox="0 0 77 77" fill="none" xmlns="http://www.w3.org/2000/svg">
    <path d="M75.477 75.647h.002c.203.002.295-.097.327-.234.038-.16-.007-.424-.253-.67l-7.636-7.675c-.418-.42-.959-.654-1.422-.659h-.002l-55.574-.235-.416-.002v-.416l.049-55.565v-.001c-.003-.464-.233-1.005-.652-1.426L2.264 1.09c-.247-.248-.51-.295-.668-.259-.133.03-.236.121-.237.333L1.32 70.767a4.01 4.01 0 0 0 .366 1.633 5.12 5.12 0 0 0 1.047 1.514c.445.447.962.808 1.509 1.055a4.011 4.011 0 0 0 1.63.373h.001l69.604.305z" fill="#222" stroke="#222" stroke-width=".835"/>
</svg>
