<svg width="76" height="77" viewBox="0 0 76 77" fill="none" xmlns="http://www.w3.org/2000/svg">
    <path d="M1.164 75.647h-.002c-.203.002-.295-.097-.327-.234-.038-.16.008-.424.253-.67l7.636-7.675c.419-.42.959-.654 1.423-.659h.001l55.574-.235.416-.002v-.416l-.049-55.565v-.001c.003-.464.234-1.005.652-1.426l7.636-7.674c.247-.248.51-.295.668-.259.133.03.236.121.238.333l.038 69.603a4.01 4.01 0 0 1-.365 1.633 5.119 5.119 0 0 1-1.047 1.514 5.117 5.117 0 0 1-1.51 1.055 4.011 4.011 0 0 1-1.63.373l-69.605.305z" fill="#222" stroke="#222" stroke-width=".835"/>
</svg>
