<svg width="77" height="76" viewBox="0 0 77 76" fill="none" xmlns="http://www.w3.org/2000/svg">
    <path d="M76.142 1.8h.002c.203.001.293.102.323.239.035.161-.015.424-.265.666l-7.769 7.54c-.425.413-.97.637-1.433.634h-.002l-55.57-.735-.416-.005-.007.416-.92 55.557v.001c-.012.464-.252 1.001-.677 1.414l-7.77 7.54c-.25.244-.513.286-.671.247-.133-.032-.234-.125-.232-.336L1.911 5.384v-.001c.008-.525.14-1.082.394-1.626a5.118 5.118 0 0 1 1.073-1.496c.453-.439.976-.79 1.528-1.028A4.011 4.011 0 0 1 6.542.89h.001l69.599.91z" fill="#222" stroke="#222" stroke-width=".835"/>
</svg>
