<svg width="76" height="77" viewBox="0 0 76 77" fill="none" xmlns="http://www.w3.org/2000/svg">
    <path d="M75 75.814v.002c0 .203-.1.294-.236.325-.161.036-.424-.012-.669-.259l-7.607-7.703c-.416-.422-.645-.964-.646-1.428v-.001l.25-55.575.002-.416-.417-.003-55.563-.436h-.001c-.464-.007-1.003-.242-1.42-.665L1.086 1.953c-.246-.25-.29-.512-.253-.67.031-.133.123-.235.334-.235l69.6.569h.002c.525.003 1.083.13 1.629.38.546.249 1.062.611 1.505 1.06.443.449.799.969 1.041 1.518a4.01 4.01 0 0 1 .36 1.634L75 75.815z" fill="#222" stroke="#222" stroke-width=".835"/>
</svg>
